<mxfile host="app.diagrams.net" agent="Mozilla/5.0 (Windows NT 10.0; Win64; x64) AppleWebKit/537.36 (KHTML, like Gecko) Chrome/129.0.0.0 Safari/537.36" version="24.7.17">
  <diagram name="Page-1" id="d8fmODNR3PmjoWvQjHIH">
    <mxGraphModel grid="1" page="1" gridSize="10" guides="1" tooltips="1" connect="1" arrows="1" fold="1" pageScale="1" pageWidth="850" pageHeight="1100" math="0" shadow="0">
      <root>
        <mxCell id="0" />
        <mxCell id="1" parent="0" />
        <mxCell id="A-KwUPI5noA4MshJRKOi-1" value="Tip Top Staffing System" style="whiteSpace=wrap;strokeWidth=2;verticalAlign=top;fillColor=#dae8fc;strokeColor=#6c8ebf;" vertex="1" parent="1">
          <mxGeometry x="20" y="20" width="769" height="238" as="geometry" />
        </mxCell>
        <mxCell id="A-KwUPI5noA4MshJRKOi-2" value="Process Applicant Information" style="whiteSpace=wrap;strokeWidth=2;fillColor=#f8cecc;strokeColor=#b85450;" vertex="1" parent="1">
          <mxGeometry x="319" y="45" width="185" height="66" as="geometry" />
        </mxCell>
        <mxCell id="A-KwUPI5noA4MshJRKOi-3" value="Generate Billing" style="whiteSpace=wrap;strokeWidth=2;fillColor=#f8cecc;strokeColor=#b85450;" vertex="1" parent="1">
          <mxGeometry x="55" y="184" width="176" height="49" as="geometry" />
        </mxCell>
        <mxCell id="A-KwUPI5noA4MshJRKOi-4" value="Applicant" style="whiteSpace=wrap;strokeWidth=2;fillColor=#f8cecc;strokeColor=#b85450;" vertex="1" parent="1">
          <mxGeometry x="824" y="184" width="129" height="49" as="geometry" />
        </mxCell>
        <mxCell id="A-KwUPI5noA4MshJRKOi-5" value="HiringManager" style="whiteSpace=wrap;strokeWidth=2;fillColor=#f8cecc;strokeColor=#b85450;" vertex="1" parent="1">
          <mxGeometry x="1003" y="184" width="163" height="49" as="geometry" />
        </mxCell>
        <mxCell id="A-KwUPI5noA4MshJRKOi-6" value="BillingDepartment" style="whiteSpace=wrap;strokeWidth=2;fillColor=#f8cecc;strokeColor=#b85450;" vertex="1" parent="1">
          <mxGeometry x="48" y="330" width="190" height="49" as="geometry" />
        </mxCell>
        <mxCell id="A-KwUPI5noA4MshJRKOi-7" value="Submit Application Data" style="curved=1;startArrow=none;endArrow=block;exitX=0;exitY=0.29;entryX=0.74;entryY=1;rounded=0;" edge="1" parent="1" source="A-KwUPI5noA4MshJRKOi-4" target="A-KwUPI5noA4MshJRKOi-2">
          <mxGeometry relative="1" as="geometry">
            <Array as="points">
              <mxPoint x="480" y="170" />
            </Array>
          </mxGeometry>
        </mxCell>
        <mxCell id="A-KwUPI5noA4MshJRKOi-8" value="Approved Application" style="curved=1;startArrow=none;endArrow=block;exitX=1;exitY=0.85;entryX=0;entryY=0.24;rounded=0;" edge="1" parent="1" source="A-KwUPI5noA4MshJRKOi-2" target="A-KwUPI5noA4MshJRKOi-5">
          <mxGeometry relative="1" as="geometry">
            <Array as="points">
              <mxPoint x="691" y="148" />
            </Array>
          </mxGeometry>
        </mxCell>
        <mxCell id="A-KwUPI5noA4MshJRKOi-9" value="Rejected Application" style="curved=1;startArrow=none;endArrow=block;exitX=0.26;exitY=1;entryX=0;entryY=0.36;rounded=0;fillColor=#dae8fc;strokeColor=#6c8ebf;" edge="1" parent="1" source="A-KwUPI5noA4MshJRKOi-2" target="A-KwUPI5noA4MshJRKOi-4">
          <mxGeometry relative="1" as="geometry">
            <Array as="points">
              <mxPoint x="300" y="180" />
            </Array>
          </mxGeometry>
        </mxCell>
        <mxCell id="A-KwUPI5noA4MshJRKOi-10" value="Processed Application" style="curved=1;startArrow=none;endArrow=block;exitX=0;exitY=0.86;entryX=0.5;entryY=0;rounded=0;" edge="1" parent="1" source="A-KwUPI5noA4MshJRKOi-2" target="A-KwUPI5noA4MshJRKOi-3">
          <mxGeometry relative="1" as="geometry">
            <Array as="points">
              <mxPoint x="143" y="148" />
            </Array>
          </mxGeometry>
        </mxCell>
        <mxCell id="A-KwUPI5noA4MshJRKOi-11" value="Invoice" style="curved=1;startArrow=none;endArrow=block;exitX=0.5;exitY=0.99;entryX=0.5;entryY=0.01;rounded=0;" edge="1" parent="1" source="A-KwUPI5noA4MshJRKOi-3" target="A-KwUPI5noA4MshJRKOi-6">
          <mxGeometry relative="1" as="geometry">
            <Array as="points" />
          </mxGeometry>
        </mxCell>
      </root>
    </mxGraphModel>
  </diagram>
</mxfile>
